<mxfile host="app.diagrams.net" modified="2024-06-10T16:44:32.150Z" agent="Mozilla/5.0 (Windows NT 10.0; Win64; x64) AppleWebKit/537.36 (KHTML, like Gecko) Chrome/125.0.0.0 Safari/537.36" version="24.5.2" etag="eEyro3YAIAyzN0_bKCnh" type="github">
  <diagram name="PÃ¡gina-1" id="TUs1z3hcx30em_fPcLL4">
    <mxGraphModel>
      <root>
        <mxCell id="0" />
        <mxCell id="1" parent="0" />
      </root>
    </mxGraphModel>
  </diagram>
</mxfile>
